<?xml version="1.0" encoding="UTF-8" standalone="no"?>
<svg
   xmlns:dc="http://purl.org/dc/elements/1.1/"
   xmlns:cc="http://creativecommons.org/ns#"
   xmlns:rdf="http://www.w3.org/1999/02/22-rdf-syntax-ns#"
   xmlns:svg="http://www.w3.org/2000/svg"
   xmlns="http://www.w3.org/2000/svg"
   height="100"
   width="100"
   id="svg2"
   xml:space="preserve"
   viewBox="0 0 100 100"
   y="0px"
   x="0px"
   version="1.2"><metadata
     id="metadata20"><rdf:RDF><cc:Work
         rdf:about=""><dc:format>image/svg+xml</dc:format><dc:type
           rdf:resource="http://purl.org/dc/dcmitype/StillImage" /><dc:title></dc:title></cc:Work></rdf:RDF></metadata><defs
     id="defs18" /><path
     id="path4"
     d="m 16.25,5 c -5.523,0 -10,4.477 -10,10 l 0,70 c 0,5.523 4.477,10 10,10 l 50,0 c 5.523,0 10,-4.477 10,-10 l 0,-5 17.5,0 0,-40 -17.5,0 0,-10 -25,-25 -35,0 z M 48.75,13.107422 68.142578,32.5 48.75,32.5 l 0,-19.392578 z M 28.75,45 l 60,0 0,30 -60,0 0,-30 z m 5,5 0,20 5,0 0,-5 2.5,0 c 4.136,0 7.5,-3.364 7.5,-7.5 0,-4.136 -3.364,-7.5 -7.5,-7.5 l -7.5,0 z m 17.5,0 0,20 7.5,0 c 4.136,0 7.5,-3.364 7.5,-7.5 l 0,-5 c 0,-4.136 -3.364,-7.5 -7.5,-7.5 l -7.5,0 z m 17.5,0 0,20 5,0 0,-5 7.5,0 0,-5 -7.5,0 0,-5 10,0 0,-5 -15,0 z m -30,5 2.5,0 c 1.379,0 2.5,1.122 2.5,2.5 0,1.378 -1.121,2.5 -2.5,2.5 l -2.5,0 0,-5 z m 17.5,0 2.5,0 c 1.379,0 2.5,1.122 2.5,2.5 l 0,5 c 0,1.378 -1.121,2.5 -2.5,2.5 l -2.5,0 0,-10 z" /></svg>